<?xml version="1.0" encoding="UTF-8"?>
<svg id="Warstwa_4" data-name="Warstwa 4" xmlns="http://www.w3.org/2000/svg" viewBox="0 0 1500 1500">
  <defs>
    <style>
      .cls-1 {
        fill: #c229e3;
      }

      .cls-1, .cls-2 {
        stroke-width: 0px;
      }

      .cls-2 {
        fill: #fff;
      }
    </style>
  </defs>
  <g>
    <path class="cls-2" d="m1071.74,556.63l198.62-126.98c-47.3-86.16-111.74-149.47-193.91-190.5l-107.99,221.87c33.11,22.27,66.19,53.39,103.29,95.61Z"/>
    <path class="cls-2" d="m803.12,800.7v75.02h268.62v123.73c-78.14,42.33-175.82,61.86-258.85,61.86-47.49,0-90.1-6.27-127.67-18.38l-107.25,220.35c54.7,17,114.79,25.95,179.57,25.95,110.7,0,221.41-29.3,314.2-83.03v66.75h249.08v-590.96h-459.92l-57.78,118.71Z"/>
    <polygon class="cls-2" points="507.22 1408.62 684.36 1278.84 603.33 1211.18 507.22 1408.62"/>
    <polygon class="cls-2" points="704.62 1003.06 920.32 842.34 822.57 760.72 704.62 1003.06"/>
    <polygon class="cls-2" points="890.8 620.55 1060.11 496.49 982.66 431.82 890.8 620.55"/>
  </g>
  <g>
    <path class="cls-1" d="m488.46,1225.77l110.72-227.48c-69.73-54.32-107.01-142.66-107.01-260.95,0-205.13,112.33-323.97,307.69-323.97,29.13,0,55.34,2.59,79.94,8.38l105.62-217.01c-55.14-15.03-116.38-22.54-183.94-22.54-356.53,0-573.05,210.01-573.05,551.89,0,227.81,96.36,403.25,260.03,491.69Z"/>
    <polygon class="cls-1" points="694.88 801.67 490.01 965.77 578.89 1039.98 694.88 801.67"/>
    <polygon class="cls-1" points="1058.08 55.47 854.81 204.64 947.72 282.21 1058.08 55.47"/>
  </g>
</svg>